<svg id="Layer_1" data-name="Layer 1" xmlns="http://www.w3.org/2000/svg" viewBox="0 0 372.39 372.39"><path d="M482.57,225.43s-50.93,12.79-84.81,33A182.64,182.64,0,0,0,296.5,228C195.16,228,113,310.16,113,411.5a182.69,182.69,0,0,0,30.43,101.22c-20.33,33.9-33.25,85.1-33.25,85.1s51.2-12.92,85.1-33.25A182.69,182.69,0,0,0,296.5,595C397.84,595,480,512.84,480,411.5a182.64,182.64,0,0,0-30.46-101.26C469.78,276.36,482.57,225.43,482.57,225.43ZM296.5,541a129,129,0,0,1-64-16.9c17.87-33.46,29-77.6,29-77.6s-44.14,11.14-77.6,29A129.53,129.53,0,0,1,360.47,298.88c-17.87,33.44-29,77.62-29,77.62s44.18-11.1,77.62-29A129.53,129.53,0,0,1,296.5,541Z" transform="translate(-110.18 -225.43)"/></svg>