<svg id="Layer_1" data-name="Layer 1" xmlns="http://www.w3.org/2000/svg" xmlns:xlink="http://www.w3.org/1999/xlink" viewBox="0 0 376.39 376.39"><defs><style>.cls-1{fill:url(#linear-gradient);}.cls-2{fill:#231f20;}</style><linearGradient id="linear-gradient" x1="104.55" y1="583.63" x2="473.94" y2="214.24" gradientUnits="userSpaceOnUse"><stop offset="0" stop-color="#2b3087"/><stop offset="0.47" stop-color="#573a90"/><stop offset="1" stop-color="#85449a"/></linearGradient></defs><path class="cls-1" d="M101.45,587.73a1,1,0,0,1-.71-.29,1,1,0,0,1-.26-1c.13-.51,13-51.19,33-84.84a183.69,183.69,0,0,1-30.25-101.24c0-101.74,82.77-184.5,184.5-184.5a183.68,183.68,0,0,1,101.29,30.28c33.62-19.9,84-32.69,84.54-32.82a1,1,0,0,1,.24,0,1,1,0,0,1,.71.29,1,1,0,0,1,.26,1c-.13.51-12.92,50.92-32.82,84.54a183.68,183.68,0,0,1,30.28,101.29c0,101.73-82.77,184.5-184.5,184.5a183.67,183.67,0,0,1-101.24-30.25c-33.65,20-84.33,32.91-84.84,33Zm123.66-75.12A128.53,128.53,0,0,0,400,337.78c-33.06,17.46-76.54,28.49-77,28.6a1.07,1.07,0,0,1-.25,0,1,1,0,0,1-.7-.3,1,1,0,0,1-.27-.95c.11-.44,11.14-43.92,28.6-77A128.54,128.54,0,0,0,159.27,400.41c0,27.17,14,55.25,20.54,66.91,32.95-17.5,72.21-32.69,72.6-32.84a.92.92,0,0,1,.36-.07,1,1,0,0,1,1,1.24C253.63,436.09,242.56,479.54,225.11,512.61Z" transform="translate(-99.45 -212.34)"/><path class="cls-2" d="M473.84,214.34h0m0,0s-12.79,50.93-33,84.81A183.51,183.51,0,0,1,186.56,553.48c-33.91,20.33-85.11,33.25-85.11,33.25s12.92-51.2,33.25-85.11A183.51,183.51,0,0,1,389,247.37c33.88-20.24,84.81-33,84.81-33M179.42,468.66c33.45-17.87,73.35-33.25,73.35-33.25s-11.14,44.14-29,77.59A129.53,129.53,0,0,0,400.39,336.44c-33.44,17.87-77.62,29-77.62,29s11.1-44.18,29-77.62A129.53,129.53,0,0,0,158.27,400.41c0,23.28,10.39,49.37,21.15,68.25M473.84,212.34h-.08a2.32,2.32,0,0,0-.46.07c-1.81.46-50.93,13.08-84.21,32.6A185.52,185.52,0,0,0,132.34,501.68c-19.88,33.77-32.7,84.05-32.83,84.56a2,2,0,0,0,2.43,2.43c.51-.13,50.79-12.95,84.56-32.83A185.52,185.52,0,0,0,443.17,299.09c19.35-33,31.91-81.54,32.58-84.16a1.87,1.87,0,0,0,.09-.59,2,2,0,0,0-2-2Zm0,4ZM180.2,466c-6.68-12.05-19.93-39.26-19.93-65.56A127.54,127.54,0,0,1,349.06,288.58c-17.25,33.06-28.12,75.9-28.23,76.34a2,2,0,0,0,2.43,2.43c.44-.11,43.28-11,76.34-28.23A127.53,127.53,0,0,1,226.44,512.21c17.25-33.07,28.16-75.88,28.27-76.31a2,2,0,0,0-1.94-2.49,2,2,0,0,0-.72.13c-.39.15-39,15.1-71.85,32.43Zm72.57-28.56h0Z" transform="translate(-99.45 -212.34)"/></svg>